# xmcd
#
# Track frame offsets:
# 150
# 10984
# 20142
# 33015
# 46890
# 58845
# 72932
# 91179
# 101632
# 119090
#
# Disc length: 1738 seconds
#
# Revision: 2
# Processed by: cddbd v1.5.2PL0 Copyright (c) Steve Scherf et al.
# Submitted via: Axialis_AX_CDPlayer 2.6
#
DISCID=8306c80a
DTITLE=Waylon Jennings - The Taker/ Tulsa
DYEAR=1971
DGENRE=Country
TTITLE0=The Taker
TTITLE1=You'll Look For Me
TTITLE2=Mississippi Woman
TTITLE3=Lovin' Her Was Easier (Than Anything I'll Ever Do Again)
TTITLE4=Six White Horses
TTITLE5=(Don't Let The Sun Set On You) Tulsa
TTITLE6=Casey's Last Ride
TTITLE7=(I'd Be) A Legend In My Time
TTITLE8=Sunday Mornin' Comin' Down
TTITLE9=Grey Eyes You Know
EXTD=The Taker/Tulsa\n© 2008 RCA Custom Marketing Group/Sony BMG\n\nOr
EXTT0=
EXTT1=
EXTT2=
EXTT3=
EXTT4=
EXTT5=
EXTT6=
EXTT7=
EXTT8=
EXTT9=
PLAYORDER=
